<?xml version="1.0" encoding="utf-8"?>
<!DOCTYPE svg PUBLIC "-//W3C//DTD SVG 1.1//EN" "http://www.w3.org/Graphics/SVG/1.1/DTD/svg11.dtd" [
	<!ENTITY ns_extend "http://ns.adobe.com/Extensibility/1.0/">
	<!ENTITY ns_ai "http://ns.adobe.com/AdobeIllustrator/10.0/">
	<!ENTITY ns_graphs "http://ns.adobe.com/Graphs/1.0/">
	<!ENTITY ns_vars "http://ns.adobe.com/Variables/1.0/">
	<!ENTITY ns_imrep "http://ns.adobe.com/ImageReplacement/1.0/">
	<!ENTITY ns_sfw "http://ns.adobe.com/SaveForWeb/1.0/">
	<!ENTITY ns_custom "http://ns.adobe.com/GenericCustomNamespace/1.0/">
	<!ENTITY ns_adobe_xpath "http://ns.adobe.com/XPath/1.0/">
]>
<svg version="1.1" id="Calque_1" xmlns:x="&ns_extend;" xmlns:i="&ns_ai;" xmlns:graph="&ns_graphs;"
	 xmlns="http://www.w3.org/2000/svg" xmlns:xlink="http://www.w3.org/1999/xlink" x="0px" y="0px" viewBox="0 0 520.8 112.1"
	 style="enable-background:new 0 0 520.8 112.1;" xml:space="preserve">
<style type="text/css">
	.st0{fill:#FFFFFF;}
	.st1{fill:#F1AB00;}
</style>
<switch>
	<g i:extraneous="self">
		<g>
			<g>
				<g>
					<path class="st0" d="M22.4,28.6h15l7.1,20.8l18.3-20.8h16.7L65.1,82.3h-15l8.3-30.8l-19.2,21h-0.3L31,51.5l-8.3,30.8H8
						L22.4,28.6z"/>
					<path class="st0" d="M258.6,28.6h22.3c14.6,0,19.3,6,19.3,12.9c0,6.8-4.5,11.9-12,13.7c4.8,1.7,8.1,5.2,8.1,10.7
						c0,9.3-7.7,16.3-24.4,16.3h-27.8L258.6,28.6z M273.1,70.3c5.1,0,8.3-2.3,8.3-5.7c0-2.8-2.2-4.2-6.5-4.2h-10.4l-2.7,9.9H273.1z
						 M277.4,50c5.4,0,8.2-2.1,8.2-5.4c0-2.5-2-4-6.5-4h-9.3l-2.5,9.4H277.4z"/>
					<path class="st0" d="M313.4,28.6h14.9l-10.9,40.6H343l-3.5,13h-40.6L313.4,28.6z"/>
					<path class="st0" d="M403.4,51.6c0,8.4-3.5,16.5-9.4,22.4c-5.7,5.6-13.5,9.3-22.5,9.3c-15.3,0-25.6-10.4-25.6-24.1
						c0-8.4,3.5-16.4,9.4-22.3c5.7-5.7,13.5-9.3,22.5-9.3C393.2,27.6,403.4,38,403.4,51.6z M383,65.6c3.3-3.3,5.3-8.2,5.3-12.7
						c0-6.8-4.1-11.9-11.8-11.9c-4.1,0-7.6,1.7-10.2,4.3C363,48.6,361,53.5,361,58c0,6.8,4.1,11.9,11.8,11.9
						C376.9,69.9,380.4,68.2,383,65.6z"/>
					<path class="st0" d="M408.9,64.5c0-2.7,0.4-5.7,1.2-8.6l7.3-27.3h15L424.8,57c-0.5,1.7-0.8,3.3-0.8,5.1c0,4.8,3,7.8,8.4,7.8
						c2.9,0,5.4-1,7.3-2.8c1.9-1.9,3.4-4.6,4.5-8.9l7.9-29.5h15l-8.5,31.8c-1.9,7.1-4.6,12.3-8.4,16c-4.8,4.8-11.5,6.9-19.8,6.9
						C416.8,83.3,408.9,76.3,408.9,64.5z"/>
					<path class="st0" d="M462.7,71.5l34.1-30.4h-25.1l3.4-12.5h45.6l-2.9,10.7l-34.2,30.4h26.2l-3.4,12.6h-46.6L462.7,71.5z"/>
					<g>
						<g>
							<g>
								<path class="st0" d="M111.3,27.5c-9,0-16.9,3.6-22.5,9.3c-5.9,5.9-9.4,14-9.4,22.3c0,13.7,10.3,24.1,25.6,24.1
									c9,0,16.9-3.7,22.5-9.3c5.9-5.9,9.4-14,9.4-22.4C136.9,37.9,126.6,27.5,111.3,27.5z M116.5,65.5c-2.6,2.6-6.1,4.4-10.2,4.4
									c-7.7,0-11.8-5.1-11.8-11.9c0-4.5,2-9.4,5.3-12.8c2.6-2.6,6.1-4.3,10.2-4.3c7.7,0,11.8,5.1,11.8,11.9
									C121.8,57.3,119.8,62.2,116.5,65.5z"/>
							</g>
							<g>
								<path class="st0" d="M225.2,27.9c-5.2-1.8-10.7-2.8-16-3.3c-12.3-1.3-24.7-2.3-37-2.5c-7.6-0.1-15.3,0-22.9,1.1
									c-4.1,0.6-8.3,1.4-12,3.3c-1.7,0.9-3.6,2.1-4.3,4c-0.7,1.9-0.2,4.2,1.9,4.8c4.7,1.5,9.6,2.5,14.3,3.8
									c3.7,1.1,8.5,2,11.6,4.5c0.3,0.2,0.5,0.4,0.7,0.7c2,3.1-1.6,6.4-3.2,8.8c-2.2,3.3-4.5,6.5-6.9,9.6
									c-4.7,6.2-9.7,12.1-14.9,17.8H157c9.3-9.1,16.2-18.5,21.1-26c7.8-12,6.3-16.9-14-21.5c-0.6-0.1-0.6-1,0.1-1.1
									c9.8-0.7,22.7,0,35.8,1.3c-1.4,1-2.8,2.2-4,3.4c-5.9,5.9-9.4,14-9.4,22.3c0,13.7,10.3,24.1,25.6,24.1c9,0,16.9-3.7,22.5-9.3
									c5.9-5.9,9.4-14,9.4-22.4c0-7.4-3.6-14.1-9.4-18.6C231.9,30.7,228.7,29.1,225.2,27.9z M223.8,65.5
									c-2.6,2.6-6.1,4.4-10.2,4.4c-7.7,0-11.8-5.1-11.8-11.9c0-4.5,2-9.4,5.3-12.8c2.6-2.6,6.1-4.3,10.2-4.3
									c7.7,0,11.8,5.1,11.8,11.9C229,57.3,227.1,62.2,223.8,65.5z"/>
							</g>
							<path class="st0" d="M203.2,20.1c-3.3-0.3-6.6-0.6-9.9-0.8c-2.9-0.2-6.1,0-8.6-1.7c-1.7-1.2-2.8-3.2-3.3-5.2
								C178.8-0.6,196.9-4.4,202.6,6c1.3,2.3,1.9,4.9,2,7.5C204.7,14.2,204.8,20.2,203.2,20.1z"/>
						</g>
					</g>
				</g>
				<g>
					<path class="st0" d="M259.3,96.3h11.4l-0.7,2.4h-8.7l-1.1,4.1h7.7l-0.7,2.4h-7.7l-1.1,4.2h8.8l-0.7,2.4h-11.5L259.3,96.3z"/>
					<path class="st0" d="M278.4,96.3h2.5l5.3,11l3-11h2.7l-4.2,15.5h-2.3l-5.4-11.3l-3,11.3h-2.7L278.4,96.3z"/>
					<path class="st0" d="M295.1,109.1l2-1.6c0.8,1.3,1.7,2,3,2c0.9,0,1.7-0.4,2.3-1c0.6-0.6,1-1.4,1.5-3.2l2.4-9h2.8l-2.6,9.7
						c-0.6,2.2-1.1,3.4-2.2,4.5c-1.1,1.1-2.6,1.6-4.3,1.6C297.8,112,296,110.9,295.1,109.1z"/>
					<path class="st0" d="M330.7,102.8c0,2.4-1,4.8-2.8,6.6c-1.6,1.6-3.9,2.7-6.5,2.7c-4.2,0-7-3-7-6.8c0-2.4,1-4.8,2.8-6.6
						c1.6-1.6,3.8-2.7,6.4-2.7C327.9,96,330.7,98.9,330.7,102.8z M325.8,107.8c1.3-1.3,2-3.1,2-4.8c0-2.6-1.6-4.5-4.4-4.5
						c-1.6,0-3,0.7-4.1,1.8c-1.3,1.3-2,3.1-2,4.8c0,2.6,1.6,4.5,4.4,4.5C323.3,109.6,324.8,108.9,325.8,107.8z"/>
					<path class="st0" d="M340.3,105.6l-3.5-9.4h3l2.3,7l6.2-7h3.4l-8.8,9.7l-1.6,5.9h-2.7L340.3,105.6z"/>
					<path class="st0" d="M371.9,98.8h-5l0.7-2.5h12.6l-0.7,2.5h-4.9l-3.5,13h-2.7L371.9,98.8z"/>
					<path class="st0" d="M387.4,96.3h2.8l-1.7,6.5h7.3l1.7-6.5h2.7l-4.2,15.5h-2.7l1.8-6.6h-7.3l-1.8,6.6h-2.8L387.4,96.3z"/>
					<path class="st0" d="M408.6,96.3H420l-0.7,2.4h-8.7l-1.1,4.1h7.7l-0.7,2.4h-7.7l-1.1,4.2h8.8l-0.7,2.4h-11.5L408.6,96.3z"/>
					<path class="st0" d="M442.1,106.4h-3.2l-1.4,5.4h-2.8l4.2-15.5h5.6c2.2,0,3.7,0.5,4.7,1.5c0.7,0.7,1.1,1.8,1.1,2.9
						c0,1.4-0.5,2.7-1.4,3.6c-0.8,0.8-2.1,1.5-3.9,1.9l2.9,5.7h-3.1L442.1,106.4z M443,104c1.6,0,2.9-0.4,3.7-1.2
						c0.5-0.5,0.8-1.1,0.8-1.9c0-0.6-0.2-1-0.6-1.4c-0.5-0.5-1.4-0.8-2.6-0.8h-3.4l-1.4,5.2H443z"/>
					<path class="st0" d="M459.5,96.3h2.8l-4.2,15.5h-2.8L459.5,96.3z"/>
					<path class="st0" d="M470.8,96.3h4.2c2.8,0,4.8,0.8,6.1,2c1.1,1.1,1.7,2.6,1.7,4.5c0,2.3-0.9,4.5-2.5,6.1
						c-1.9,1.9-4.6,2.9-8.1,2.9h-5.6L470.8,96.3z M474.8,98.7h-1.9l-2.9,10.6h2.5c2.3,0,4.3-0.7,5.7-2.1c1.1-1.1,1.7-2.6,1.7-4.3
						c0-1.2-0.4-2.2-1.1-2.9C478,99.2,476.7,98.7,474.8,98.7z"/>
					<path class="st0" d="M491.2,96.3h11.4l-0.7,2.4h-8.7l-1.1,4.1h7.7l-0.7,2.4h-7.7l-1.1,4.2h8.8l-0.7,2.4H487L491.2,96.3z"/>
					<g>
						<path class="st0" d="M238.8,111.9h-2.8l4.2-15.5h2.8L238.8,111.9z"/>
						<path class="st0" d="M244.9,111.9h-2.8l4.2-15.5h2.8L244.9,111.9z"/>
						<path class="st0" d="M235.9,102.2l0.6-2.3l14.4,0l-0.6,2.3L235.9,102.2z"/>
						<path class="st0" d="M234.2,108.3l0.6-2.3l14.4,0l-0.6,2.3L234.2,108.3z"/>
					</g>
				</g>
				<polygon class="st1" points="228.2,96.3 4.2,96.3 0,111.9 224,111.9 				"/>
			</g>
		</g>
	</g>
</switch>
</svg>
